<?xml version="1.0" encoding="UTF-8"?><svg id="Ebene_2" xmlns="http://www.w3.org/2000/svg" viewBox="0 0 23.31 23.31"><defs><style>.cls-1{fill:#fff;}.cls-2{fill:#e30613;}</style></defs><g id="Ebene_1-2"><path class="cls-2" d="M11.66,22.31c-1.34,0-2.59-.52-3.54-1.46l-5.66-5.66c-.94-.94-1.46-2.2-1.46-3.54s.52-2.59,1.46-3.54l5.66-5.66c.94-.94,2.2-1.46,3.54-1.46s2.59.52,3.54,1.46l5.66,5.66c.94.94,1.46,2.2,1.46,3.54s-.52,2.59-1.46,3.54l-5.66,5.66c-.94.94-2.2,1.46-3.54,1.46Z"/><path class="cls-1" d="M11.66,2c1.07,0,2.07.42,2.83,1.17l5.66,5.66c.76.76,1.17,1.76,1.17,2.83s-.42,2.07-1.17,2.83l-5.66,5.66c-.76.76-1.76,1.17-2.83,1.17s-2.07-.42-2.83-1.17l-5.66-5.66c-.76-.76-1.17-1.76-1.17-2.83s.42-2.07,1.17-2.83l5.66-5.66c.76-.76,1.76-1.17,2.83-1.17M11.66,0c-1.54,0-3.07.59-4.24,1.76L1.76,7.41c-2.34,2.34-2.34,6.14,0,8.49l5.66,5.66c1.17,1.17,2.71,1.76,4.24,1.76s3.07-.59,4.24-1.76l5.66-5.66c2.34-2.34,2.34-6.14,0-8.49L15.9,1.76c-1.17-1.17-2.71-1.76-4.24-1.76h0Z"/><path class="cls-1" d="M6,12.66c-.27,0-.52-.1-.71-.29-.19-.19-.29-.44-.29-.71s.1-.52.29-.71.44-.29.71-.29.52.1.71.29c.19.19.29.44.29.71s-.1.52-.29.71c-.19.19-.44.29-.71.29Z"/><path class="cls-1" d="M6,11.66h0s0,0,0,0M6,9.66c-.51,0-1.02.2-1.41.59-.78.78-.78,2.05,0,2.83.39.39.9.59,1.41.59s1.02-.2,1.41-.59c.78-.78.78-2.05,0-2.83-.39-.39-.9-.59-1.41-.59h0Z"/><path class="cls-1" d="M11.66,18.31c-.27,0-.52-.1-.71-.29-.19-.19-.29-.44-.29-.71s.1-.52.29-.71.44-.29.71-.29.52.1.71.29.29.44.29.71-.1.52-.29.71c-.19.19-.44.29-.71.29Z"/><path class="cls-1" d="M11.66,17.31h0s0,0,0,0M11.66,15.31c-.51,0-1.02.2-1.41.59-.78.78-.78,2.05,0,2.83.39.39.9.59,1.41.59s1.02-.2,1.41-.59c.78-.78.78-2.05,0-2.83-.39-.39-.9-.59-1.41-.59h0Z"/><path class="cls-1" d="M11.66,7c-.27,0-.52-.1-.71-.29-.39-.39-.39-1.02,0-1.42.19-.19.44-.29.71-.29s.52.1.71.29c.39.39.39,1.02,0,1.41-.19.19-.44.29-.71.29Z"/><path class="cls-1" d="M11.66,6h0s0,0,0,0M11.66,4c-.51,0-1.02.2-1.41.59-.78.78-.78,2.05,0,2.83.39.39.9.59,1.41.59s1.02-.2,1.41-.59c.78-.78.78-2.05,0-2.83-.39-.39-.9-.59-1.41-.59h0Z"/><path class="cls-1" d="M17.31,12.66c-.27,0-.52-.1-.71-.29s-.29-.44-.29-.71.1-.52.29-.71c.19-.19.44-.29.71-.29s.52.1.71.29c.19.19.29.44.29.71s-.1.52-.29.71-.44.29-.71.29Z"/><path class="cls-1" d="M17.31,11.66h0s0,0,0,0M17.31,9.66c-.51,0-1.02.2-1.41.59-.78.78-.78,2.05,0,2.83.39.39.9.59,1.41.59s1.02-.2,1.41-.59c.78-.78.78-2.05,0-2.83-.39-.39-.9-.59-1.41-.59h0Z"/></g></svg>
