<?xml version="1.0" encoding="UTF-8"?><svg id="Ebene_2" xmlns="http://www.w3.org/2000/svg" viewBox="0 0 25 25"><defs><style>.cls-1{fill:#fff;}.cls-2{fill:#009fe3;}</style></defs><g id="Ebene_1-2"><path class="cls-2" d="M12.5,24c-1.52,0-2.75-1.23-2.75-2.75v-6H3.75c-1.52,0-2.75-1.23-2.75-2.75s1.23-2.75,2.75-2.75h6V3.75c0-1.52,1.23-2.75,2.75-2.75s2.75,1.23,2.75,2.75v6h6c1.52,0,2.75,1.23,2.75,2.75s-1.23,2.75-2.75,2.75h-6v6c0,1.52-1.23,2.75-2.75,2.75Z"/><path class="cls-1" d="M12.5,2c.96,0,1.75.79,1.75,1.75v7h7c.96,0,1.75.79,1.75,1.75s-.79,1.75-1.75,1.75h-7v7c0,.96-.79,1.75-1.75,1.75s-1.75-.79-1.75-1.75v-7H3.75c-.96,0-1.75-.79-1.75-1.75s.79-1.75,1.75-1.75h7V3.75c0-.96.79-1.75,1.75-1.75M12.5,0c-2.07,0-3.75,1.68-3.75,3.75v5H3.75c-2.07,0-3.75,1.68-3.75,3.75h0c0,2.07,1.68,3.75,3.75,3.75h5v5c0,2.07,1.68,3.75,3.75,3.75s3.75-1.68,3.75-3.75v-5h5c2.07,0,3.75-1.68,3.75-3.75h0c0-2.07-1.68-3.75-3.75-3.75h-5V3.75c0-2.07-1.68-3.75-3.75-3.75h0Z"/></g></svg>